<?xml version="1.0" encoding="UTF-8" standalone="no"?>
<svg
   xmlns:dc="http://purl.org/dc/elements/1.1/"
   xmlns:cc="http://creativecommons.org/ns#"
   xmlns:rdf="http://www.w3.org/1999/02/22-rdf-syntax-ns#"
   xmlns:svg="http://www.w3.org/2000/svg"
   xmlns="http://www.w3.org/2000/svg"
   xmlns:sodipodi="http://sodipodi.sourceforge.net/DTD/sodipodi-0.dtd"
   xmlns:inkscape="http://www.inkscape.org/namespaces/inkscape"
   sodipodi:docname="abolish.svg"
   inkscape:version="1.0 (4035a4fb49, 2020-05-01)"
   width="210mm"
   height="297mm"
   viewBox="0 0 210 297"
   version="1.1"
   id="svg8">
  <defs
     id="defs2">
    <marker
       id="CheckToolsAndOPMarker"
       orient="auto"
       refX="-4"
       refY="-1.687441"
       style="overflow:visible">
      <path
         d="m 4.588864,-1.687441 0.0,0.0 L 9.177728,0.0 c -0.73311,-0.996261 -0.728882,-2.359329 0.0,-3.374882"
         style="fill:#000044;fill-rule:evenodd;stroke:none"
         id="path865" />
    </marker>
    <marker
       id="DrawCurveMarker"
       orient="auto"
       refX="-4"
       refY="-1.687441"
       style="overflow:visible">
      <path
         d="m 4.588864,-1.687441 0.0,0.0 L 9.177728,0.0 c -0.73311,-0.996261 -0.728882,-2.359329 0.0,-3.374882"
         style="fill:#000044;fill-rule:evenodd;stroke:none"
         id="path868" />
    </marker>
    <marker
       id="DrawCurveMarker_r"
       orient="auto"
       refX="4"
       refY="-1.687441"
       style="overflow:visible">
      <path
         d="m -4.588864,-1.687441 0.0,0.0 L -9.177728,0.0 c 0.73311,-0.996261 0.728882,-2.359329 0.0,-3.374882"
         style="fill:#000044;fill-rule:evenodd;stroke:none"
         id="path871" />
    </marker>
    <marker
       id="InOutPathMarker"
       orient="auto"
       refX="-4"
       refY="-1.687441"
       style="overflow:visible">
      <path
         d="m 4.588864,-1.687441 0.0,0.0 L 9.177728,0.0 c -0.73311,-0.996261 -0.728882,-2.359329 0.0,-3.374882"
         style="fill:#0072a7;fill-rule:evenodd;stroke:none"
         id="path874" />
    </marker>
  </defs>
  <sodipodi:namedview
     inkscape:window-maximized="0"
     inkscape:window-y="6"
     inkscape:window-x="130"
     inkscape:window-height="1040"
     inkscape:window-width="1274"
     showgrid="false"
     inkscape:document-rotation="0"
     inkscape:current-layer="layer1"
     inkscape:document-units="mm"
     inkscape:cy="535.49036"
     inkscape:cx="400"
     inkscape:zoom="0.7"
     inkscape:pageshadow="2"
     inkscape:pageopacity="0.0"
     borderopacity="1.0"
     bordercolor="#666666"
     pagecolor="#ffffff"
     id="base" />
  <metadata
     id="metadata5">
    <rdf:RDF>
      <cc:Work
         rdf:about="">
        <dc:format>image/svg+xml</dc:format>
        <dc:type
           rdf:resource="http://purl.org/dc/dcmitype/StillImage" />
        <dc:title></dc:title>
      </cc:Work>
    </rdf:RDF>
  </metadata>
  <g
     id="layer1"
     inkscape:groupmode="layer"
     inkscape:label="Layer 1">
    <path
       d="m 40.821427,173.49107 c -8.727711,-4.38212 -18.520852,-8.35541 -24.439723,-16.49582 -3.643777,-6.51071 5.521385,-10.87295 10.906419,-10.27456 9.324704,-0.28358 18.600601,3.00807 27.8964,1.068"
       style="fill:none;stroke:#000000;stroke-width:0.264583px;stroke-linecap:butt;stroke-linejoin:miter;stroke-opacity:1"
       id="path6089" />
    <path
       d="m 34.395833,146.27678 c 0.722005,8.18516 -1.376153,16.2468 -3.023809,24.19048"
       style="fill:none;stroke:#000000;stroke-width:0.264583px;stroke-linecap:butt;stroke-linejoin:miter;stroke-opacity:1"
       id="path6091" />
    <path
       d="m 55.562499,137.96131 c -7.513066,-6.20015 -17.011541,-10.99599 -21.481792,-20.07361 -3.291415,-4.48289 5.0858,-15.76023 7.910909,-8.65317 1.486596,3.97396 5.028971,13.19684 8.482425,5.31091 4.65801,-8.26503 14.007081,1.93216 12.419369,8.67084 0.07693,5.45308 -1.315959,12.92248 -7.330911,14.74503 z"
       style="fill:none;stroke:#000000;stroke-width:0.264583px;stroke-linecap:butt;stroke-linejoin:miter;stroke-opacity:1"
       id="path6093" />
    <path
       d="m 73.705357,93.360117 c -8.029723,-2.345834 -12.235898,7.437183 -8.931213,13.729793 1.669196,7.65415 11.978554,13.00108 17.841054,6.36648 7.700443,-7.93651 0.514117,-24.869543 -11.052854,-22.687511 l -1.258772,0.323381"
       style="fill:none;stroke:#000000;stroke-width:0.264583px;stroke-linecap:butt;stroke-linejoin:miter;stroke-opacity:1"
       id="path6095" />
    <path
       d="m 89.958332,86.178571 c 2.768504,8.331657 4.603017,18.141759 12.063658,23.676079 6.25163,3.96337 11.94201,-2.17965 17.07503,-4.74076 2.0573,-0.64676 4.23406,-0.98532 6.39107,-0.79244"
       style="fill:none;stroke:#000000;stroke-width:0.264583px;stroke-linecap:butt;stroke-linejoin:miter;stroke-opacity:1"
       id="path6097" />
    <path
       d="m 147.78869,90.714284 c -2.55617,9.718006 -6.07896,19.141756 -9.07143,28.726186"
       style="fill:none;stroke:#000000;stroke-width:0.264583px;stroke-linecap:butt;stroke-linejoin:miter;stroke-opacity:1"
       id="path6099" />
    <path
       d="m 163.28571,134.18155 c 5.82529,-5.53231 -1.32811,-12.97725 -7.68361,-12.61363 -7.78832,-1.09907 -5.57187,8.2006 -1.2218,11.02989 4.88582,4.4071 2.90193,13.39348 -4.10944,13.86069 -5.14464,0.90595 -10.23748,-2.32104 -12.30955,-6.98529"
       style="fill:none;stroke:#000000;stroke-width:0.264583px;stroke-linecap:butt;stroke-linejoin:miter;stroke-opacity:1"
       id="path6101" />
    <path
       d="m 165.55357,154.97024 c -7.81541,0.33739 -15.34532,2.69489 -23.05655,3.77976"
       style="fill:none;stroke:#000000;stroke-width:0.264583px;stroke-linecap:butt;stroke-linejoin:miter;stroke-opacity:1"
       id="path6103" />
    <path
       d="m 166.6875,170.84524 c -9.23822,3.41645 -19.74054,2.71362 -28.34822,7.9375"
       style="fill:none;stroke:#000000;stroke-width:0.264583px;stroke-linecap:butt;stroke-linejoin:miter;stroke-opacity:1"
       id="path6105" />
    <path
       d="m 151.94643,156.86012 c 3.14188,4.63275 0.41392,10.69538 3.02381,15.49702"
       style="fill:none;stroke:#000000;stroke-width:0.264583px;stroke-linecap:butt;stroke-linejoin:miter;stroke-opacity:1"
       id="path6107" />
    <g
       gcodetools="Preview group"
       id="g6542" />
    <g
       gcodetools="Preview group"
       id="g6544" />
    <g
       gcodetools="Preview group"
       id="g6546" />
    <g
       gcodetools="Preview group"
       id="g6548" />
    <g
       gcodetools="Preview group"
       id="g6550" />
    <g
       gcodetools="Preview group"
       id="g6552" />
    <g
       gcodetools="Preview group"
       id="g6554" />
    <g
       gcodetools="Preview group"
       id="g6556" />
    <g
       gcodetools="Preview group"
       id="g6558" />
  </g>
  <g
     id="g6561" />
</svg>
