<?xml version="1.0" encoding="UTF-8" standalone="no"?>
<svg
   xmlns:dc="http://purl.org/dc/elements/1.1/"
   xmlns:cc="http://creativecommons.org/ns#"
   xmlns:rdf="http://www.w3.org/1999/02/22-rdf-syntax-ns#"
   xmlns:svg="http://www.w3.org/2000/svg"
   xmlns="http://www.w3.org/2000/svg"
   xmlns:sodipodi="http://sodipodi.sourceforge.net/DTD/sodipodi-0.dtd"
   xmlns:inkscape="http://www.inkscape.org/namespaces/inkscape"
   sodipodi:docname="police.svg"
   inkscape:version="1.0 (4035a4fb49, 2020-05-01)"
   id="svg6751"
   version="1.1"
   viewBox="0 0 210 297"
   height="297mm"
   width="210mm">
  <defs
     id="defs6745" />
  <sodipodi:namedview
     inkscape:window-maximized="0"
     inkscape:window-y="6"
     inkscape:window-x="182"
     inkscape:window-height="1040"
     inkscape:window-width="1274"
     showgrid="false"
     inkscape:document-rotation="0"
     inkscape:current-layer="layer1"
     inkscape:document-units="mm"
     inkscape:cy="560"
     inkscape:cx="400"
     inkscape:zoom="0.35"
     inkscape:pageshadow="2"
     inkscape:pageopacity="0.0"
     borderopacity="1.0"
     bordercolor="#666666"
     pagecolor="#ffffff"
     id="base" />
  <metadata
     id="metadata6748">
    <rdf:RDF>
      <cc:Work
         rdf:about="">
        <dc:format>image/svg+xml</dc:format>
        <dc:type
           rdf:resource="http://purl.org/dc/dcmitype/StillImage" />
        <dc:title></dc:title>
      </cc:Work>
    </rdf:RDF>
  </metadata>
  <g
     id="layer1"
     inkscape:groupmode="layer"
     inkscape:label="Layer 1">
    <path
       id="path7324"
       d="m 37.04167,208.64285 c -1.21051,-4.23676 -1.65608,-6.63935 -3.77977,-10.58333 -3.42809,-6.36646 -4.00729,-3.7064 -6.80357,-12.09524 -1.1409,-3.42272 -1.42588,-7.07509 -2.26785,-10.58333 -2.41393,-10.05801 -4.02169,-20.10845 -6.04762,-30.2381 -0.43103,-2.15513 -2.78943,-7.7939 -1.51191,-9.07142 0.39842,-0.39843 1.11348,-0.35753 1.51191,-0.75596 0.17818,-0.17818 -0.22538,-0.64326 0,-0.75595 0.9406,-0.4703 7.30109,-0.0258 7.55952,0 8.93833,0.89383 11.31982,4.84557 13.60714,12.85119 0.3592,1.25718 1.23656,2.33796 0.75595,3.77976 -0.52025,1.56076 -1.63089,1.7499 -2.26785,3.02381 -1.49739,2.99478 -3.06221,5.29167 -6.80357,5.29167 -0.56207,0 -9.58481,0 -7.55953,0"
       style="fill:none;stroke:#000000;stroke-width:0.264583px;stroke-linecap:butt;stroke-linejoin:miter;stroke-opacity:1" />
    <path
       id="path7326"
       d="m 52.916666,164.79762 c -0.08846,0.28856 -4.494903,-1.55272 -5.291667,-0.75596 -1.901661,1.90167 -3.392376,4.90428 -5.291666,6.80358 -0.377976,0.37797 -1.133928,0.37797 -1.511906,0.75595 -1.430962,1.43096 1.200674,6.62583 1.511906,7.55952 1.007181,3.02154 0.956006,5.73072 3.023809,8.31548 0.445233,0.55654 0.918887,1.11656 1.511906,1.5119 0.209664,0.13978 0.64326,-0.22538 0.755951,0 0.464635,0.92927 0.221414,2.13291 0.755952,3.02381 0.424164,0.70694 7.812598,3.61214 8.315476,3.77976 1.447231,0.48241 2.870874,2.68407 4.535715,2.26786 3.951605,-0.9879 8.106608,-3.50127 10.583333,-6.80357 0.151191,-0.20159 -0.178178,-0.57777 0,-0.75595 1.391629,-1.39163 3.655571,-2.01948 4.535715,-3.77976 0.88614,-1.77229 -0.243023,-6.29064 -1.511906,-7.55953 -0.178178,-0.17818 -0.503968,0 -0.755952,0 -0.251983,-0.25198 -0.542136,-0.47086 -0.755951,-0.75595 -5.004885,-6.67318 -12.88188,-17.14515 -20.410715,-19.65476 -0.952407,-0.31747 -4.1109,-1.34634 -5.291667,-0.75595 -0.637473,0.31873 -0.874429,1.19316 -1.511905,1.5119 -1.007936,0.50397 -0.755952,-0.75595 -0.755952,0.75595"
       style="fill:none;stroke:#000000;stroke-width:0.264583px;stroke-linecap:butt;stroke-linejoin:miter;stroke-opacity:1" />
    <path
       id="path7328"
       d="m 93.738093,149.67857 c -0.503968,2.77183 -0.702368,5.61702 -1.511903,8.31548 -0.713129,2.37709 -2.165853,4.47483 -3.023809,6.80357 -1.960769,5.32208 -2.438736,11.3885 -4.535715,16.63095 -1.272728,3.18182 -3.316126,6.57514 -4.535715,9.82738 -2.353935,6.27716 0.34254,1.31111 -0.755952,6.80357 -0.06989,0.34944 -0.596582,0.43722 -0.755952,0.75595 -0.474387,0.94878 -2.012913,8.82537 -1.511905,9.82738 0.318738,0.63748 1.11656,0.91889 1.511905,1.51191 0.279551,0.41933 -0.356359,1.15554 0,1.5119 0.35636,0.35636 1.033799,-0.15937 1.511904,0 2.408089,0.8027 4.340079,3.13588 7.559524,3.77976 6.501344,1.30028 4.418417,-8.31547 8.315475,-8.31547"
       style="fill:none;stroke:#000000;stroke-width:0.264583px;stroke-linecap:butt;stroke-linejoin:miter;stroke-opacity:1" />
    <path
       id="path7344"
       d="m 112.6369,167.06547 c -3.62194,7.20585 -3.55782,15.61137 -4.53571,23.43453 -0.83564,6.68509 -0.75595,0.14975 -0.75595,3.02381"
       style="fill:none;stroke:#000000;stroke-width:0.264583px;stroke-linecap:butt;stroke-linejoin:miter;stroke-opacity:1" />
    <path
       id="path7346"
       d="m 139.09524,159.50595 c -2.76046,1.53359 -3.28717,-1.53358 -6.04762,0 -2.0346,1.13033 -12.41601,13.61838 -11.33929,17.38691 1.05114,3.67898 2.04287,2.87381 4.53572,4.53571 1.39526,0.93017 2.28149,3.03063 3.77976,3.77976 3.43679,1.7184 9.91258,-1.59711 12.09524,-3.77976"
       style="fill:none;stroke:#000000;stroke-width:0.264583px;stroke-linecap:butt;stroke-linejoin:miter;stroke-opacity:1" />
    <path
       id="path7360"
       d="m 155.72619,167.06547 c 5.84663,-1.10113 10.77712,-1.26206 14.13082,-4.99143 2.61651,-2.90961 2.78643,-7.56911 -0.83122,-9.98285 -1.17553,-0.78433 -3.3249,0 -4.98735,0 -1.82238,0 -4.59806,-0.24802 -5.81857,1.10921 -1.98554,2.20797 -2.994,4.75445 -4.15612,7.20984 -2.77309,5.85907 0.21959,0.87909 1.66244,6.65523 0.27708,1.1092 -0.98381,2.20772 -0.83122,3.32761 0.61569,4.51872 7.84695,10.227 12.46837,13.31047 1.46054,0.97449 5.61851,4.18176 8.31225,3.88221 4.93395,-0.54866 5.38568,-3.03879 8.31224,-4.99142"
       style="fill:none;stroke:#000000;stroke-width:0.237639px;stroke-linecap:butt;stroke-linejoin:miter;stroke-opacity:1" />
    <path
       id="path7362"
       d="m 56.696427,125.48809 c 5.294426,6.54092 13.843219,12.56739 17.386905,19.65477 0.780995,1.56198 3.02381,1.07865 3.02381,2.26785"
       style="fill:none;stroke:#000000;stroke-width:0.264583px;stroke-linecap:butt;stroke-linejoin:miter;stroke-opacity:1" />
    <path
       id="path7364"
       d="m 134.55952,121.70833 c -7.31173,3.65587 0.0818,-0.43931 -4.53571,3.02381 -4.1449,3.10867 1.89217,-2.69508 -3.77976,2.26786 -2.91199,2.54799 -4.59756,4.5821 -7.55953,6.80357 -0.45076,0.33807 -0.28713,1.19936 -0.75595,1.5119 -0.66301,0.44201 -1.63038,0.27785 -2.26786,0.75596 -0.45076,0.33807 -0.4434,1.04308 -0.75595,1.5119 -1.21669,1.82503 -0.25198,-0.25198 -2.26786,0.75595 -0.22538,0.11269 0.17818,0.57778 0,0.75596 -0.64243,0.64243 -1.45523,1.10559 -2.26785,1.5119 -0.22539,0.11269 -0.75596,-0.25198 -0.75596,0 0,0.25198 0.50397,0 0.75596,0"
       style="fill:none;stroke:#000000;stroke-width:0.264583px;stroke-linecap:butt;stroke-linejoin:miter;stroke-opacity:1" />
    <path
       id="path7366"
       d="m 117.17262,233.58928 c -6.60249,-5.65621 -15.81492,-5.56368 -23.434527,-3.02381 -0.152556,0.0509 -2.772296,-0.25151 -3.023809,0 -0.796843,0.79685 -0.886809,2.08617 -1.511903,3.02381 -0.595567,0.89335 -1.814084,1.05813 -2.267858,1.51191 -0.915138,0.91514 -0.749684,3.01754 -1.511906,3.77976 -0.508915,0.50892 -0.955312,0.39872 -1.511903,1.5119 -0.610719,1.22144 0.755952,2.59107 0.755952,3.77977"
       style="fill:none;stroke:#000000;stroke-width:0.264583px;stroke-linecap:butt;stroke-linejoin:miter;stroke-opacity:1" />
  </g>
</svg>
